<svg version="1.1" width="512" height="512" viewBox="0 0 24 24" xmlns="http://www.w3.org/2000/svg" xmlns:xlink="http://www.w3.org/1999/xlink" id="Filled" overflow="hidden"><path d=" M 17.721 3 L 16.308 1.168 C 15.7377 0.434108 14.8614 0.00336971 13.932 -1.71661e-08 L 10.068 0 C 9.13856 0.00336973 8.26233 0.434108 7.692 1.168 L 6.279 3 Z" stroke="none" stroke-width="1" stroke-dasharray="" stroke-dashoffset="1" fill="#1EBBEE" fill-opacity="1"/><circle cx="12" cy="14" r="4" stroke="none" stroke-width="1" stroke-dasharray="" stroke-dashoffset="1" fill="#1EBBEE" fill-opacity="1"/><path d=" M 19 5 L 5 5 C 2.23995 5.00331 0.00330612 7.23995 1.77636e-15 10 L 0 19 C 0.00330612 21.7601 2.23995 23.9967 5 24 L 19 24 C 21.7601 23.9967 23.9967 21.7601 24 19 L 24 10 C 23.9967 7.23995 21.7601 5.00331 19 5 Z M 12 20 C 8.68629 20 6 17.3137 6 14 C 6 10.6863 8.68629 8 12 8 C 15.3137 8 18 10.6863 18 14 C 17.9967 17.3123 15.3123 19.9967 12 20 Z" stroke="none" stroke-width="1" stroke-dasharray="" stroke-dashoffset="1" fill="#1EBBEE" fill-opacity="1"/></svg>