<svg version="1.1" width="512" height="512" viewBox="0 0 24 24" xmlns="http://www.w3.org/2000/svg" xmlns:xlink="http://www.w3.org/1999/xlink" id="Layer_1" overflow="hidden"><path d=" M 2 16 L 12 16 L 12 22 L 6 22 L 6 20 L 10 20 L 10 18 L 0 18 L 0 4 C 0 2.35 1.35 1 3 1 L 19 1 C 20.65 1 22 2.35 22 4 L 22 7 L 20 7 L 20 4 C 20 3.45 19.55 3 19 3 L 3 3 C 2.45 3 2 3.45 2 4 L 2 16 Z M 24 12 L 24 24 L 14 24 L 14 12 C 14 10.35 15.35 9 17 9 L 21 9 C 22.65 9 24 10.35 24 12 Z M 22 12 C 22 11.45 21.55 11 21 11 L 17 11 C 16.45 11 16 11.45 16 12 L 16 22 L 22 22 L 22 12 Z" stroke="none" stroke-width="1" stroke-dasharray="" stroke-dashoffset="1" fill="#1EBBEE" fill-opacity="1"/></svg>