<svg version="1.1" width="512" height="512" viewBox="0 0 24 24" xmlns="http://www.w3.org/2000/svg" xmlns:xlink="http://www.w3.org/1999/xlink" overflow="hidden"><style>
.MsftOfcThm_Background1_Fill {
 fill:#FFFFFF; 
}
</style>
<g id="_01_align_center"><path d=" M 13.338 0.833 C 12.5774 0.148366 11.4226 0.148366 10.662 0.833 L 0 10.429 L 0 20.829 C 8.88178e-16 22.5963 1.43269 24.029 3.2 24.029 L 20.8 24.029 C 22.5673 24.029 24 22.5963 24 20.829 L 24 10.429 Z M 15 22.026 L 9 22.026 L 9 17 C 9 15.3431 10.3431 14 12 14 C 13.6569 14 15 15.3431 15 17 Z M 22 20.826 C 22 21.4887 21.4627 22.026 20.8 22.026 L 17 22.026 L 17 17 C 17 14.2386 14.7614 12 12 12 C 9.23858 12 7 14.2386 7 17 L 7 22.026 L 3.2 22.026 C 2.53726 22.026 2 21.4887 2 20.826 L 2 11.319 L 12 2.319 L 22 11.319 Z" stroke="none" stroke-width="1" stroke-dasharray="" stroke-dashoffset="1" fill="#FFFFFF" fill-opacity="1"/></g></svg>