<svg version="1.1" width="512" height="512" viewBox="0 0 24 24" xmlns="http://www.w3.org/2000/svg" xmlns:xlink="http://www.w3.org/1999/xlink" overflow="hidden"><g id="_01_align_center"><path d=" M 22 15 L 22 3 L 2 3 L 2 15 L 0 15 L 0 18 C 0 19.6569 1.34315 21 3 21 L 21 21 C 22.6569 21 24 19.6569 24 18 L 24 15 Z M 4 5 L 20 5 L 20 15 L 14.921 15 L 14.074 16 L 9.925 16 L 9.079 15 L 4 15 Z M 22 18 C 22 18.5523 21.5523 19 21 19 L 3 19 C 2.44772 19 2 18.5523 2 18 L 2 17 L 8.151 17 L 9 18 L 15 18 L 15.847 17 L 22 17 Z" stroke="none" stroke-width="1" stroke-dasharray="" stroke-dashoffset="1" fill="#1EBBEE" fill-opacity="1"/></g></svg>