<svg version="1.1" width="512" height="512" viewBox="0 0 24 24" xmlns="http://www.w3.org/2000/svg" xmlns:xlink="http://www.w3.org/1999/xlink" id="Layer_1" overflow="hidden"><path d=" M 11.5 16 C 10.6716 16 10 16.6716 10 17.5 L 10 18.3 C 10 19.7912 8.79117 21 7.3 21 L 5.7 21 C 4.20883 21 3 19.7912 3 18.3 L 3 5.7 C 3 4.20883 4.20883 3 5.7 3 L 7.3 3 C 8.79117 3 10 4.20883 10 5.7 L 10 6.5 C 10 7.32843 10.6716 8 11.5 8 C 12.3284 8 13 7.32843 13 6.5 L 13 5.7 C 12.9967 2.55335 10.4467 0.00330686 7.3 -1.90735e-07 L 5.7 0 C 2.55335 0.00330705 0.00330686 2.55335 -1.90735e-07 5.7 L 0 18.3 C 0.00330705 21.4467 2.55335 23.9967 5.7 24 L 7.3 24 C 10.4467 23.9967 12.9967 21.4467 13 18.3 L 13 17.5 C 13 16.6716 12.3284 16 11.5 16 Z" stroke="none" stroke-width="1" stroke-dasharray="" stroke-dashoffset="1" fill="#0D4F6C" fill-opacity="1"/><path d=" M 22.561 9.525 L 17.975 4.939 C 17.389 4.3533 16.4392 4.35353 15.8535 4.9395 C 15.2678 5.52547 15.268 6.4753 15.854 7.061 L 19.265 10.472 L 7 10.5 C 6.17157 10.5 5.5 11.1716 5.5 12 C 5.5 12.8284 6.17157 13.5 7 13.5 L 7 13.5 L 19.318 13.472 L 15.851 16.939 C 15.265 17.5247 15.2648 18.4745 15.8505 19.0605 C 16.4362 19.6465 17.386 19.6467 17.972 19.061 L 22.558 14.475 C 23.9231 13.1078 23.9244 10.8938 22.561 9.525 Z" stroke="none" stroke-width="1" stroke-dasharray="" stroke-dashoffset="1" fill="#0D4F6C" fill-opacity="1"/></svg>