<svg version="1.1" width="512" height="512" viewBox="0 0 24 24" xmlns="http://www.w3.org/2000/svg" xmlns:xlink="http://www.w3.org/1999/xlink" id="Bold" overflow="hidden"><path d=" M 14.121 12 L 18 8.117 C 18.5472 7.49504 18.4866 6.54723 17.8647 6 C 17.2982 5.50154 16.4495 5.50154 15.883 6 L 12 9.879 L 8.11 5.988 C 7.52403 5.40203 6.57397 5.40203 5.988 5.988 C 5.40203 6.57397 5.40203 7.52403 5.988 8.11 L 9.879 12 L 6 15.882 C 5.38237 16.4341 5.32925 17.3824 5.88136 18 C 6.43347 18.6176 7.38173 18.6707 7.99936 18.1186 C 8.04109 18.0813 8.0807 18.0417 8.118 18 L 12 14.121 L 15.878 18 C 16.464 18.586 17.414 18.586 18 18 C 18.586 17.414 18.586 16.464 18 15.878 Z" stroke="none" stroke-width="1" stroke-dasharray="" stroke-dashoffset="1" fill="#FF0000" fill-opacity="1"/></svg>