<svg version="1.1" width="512" height="512" viewBox="0 0 24 24" xmlns="http://www.w3.org/2000/svg" xmlns:xlink="http://www.w3.org/1999/xlink" id="Layer_1" overflow="hidden"><path d=" M 15 24 L 9 24 C 6.243 24 4 21.757 4 19 L 4 5 C 4 2.243 6.243 0 9 0 L 15 0 C 17.757 0 20 2.243 20 5 L 20 19 C 20 21.757 17.757 24 15 24 Z M 9 2 C 7.346 2 6 3.346 6 5 L 6 19 C 6 20.654 7.346 22 9 22 L 15 22 C 16.654 22 18 20.654 18 19 L 18 5 C 18 3.346 16.654 2 15 2 L 9 2 Z M 14 19 L 14 19 C 14 18.448 13.552 18 13 18 L 11 18 C 10.448 18 10 18.448 10 19 L 10 19 C 10 19.552 10.448 20 11 20 L 13 20 C 13.552 20 14 19.552 14 19 Z" stroke="none" stroke-width="1" stroke-dasharray="" stroke-dashoffset="1" fill="#1EBBEE" fill-opacity="1"/></svg>