<svg version="1.1" width="512" height="512" viewBox="0 0 24 24" xmlns="http://www.w3.org/2000/svg" xmlns:xlink="http://www.w3.org/1999/xlink" overflow="hidden"><g id="_01_align_center"><path d=" M 2 0 L 2 21 C 2 22.6569 3.34315 24 5 24 L 19 24 C 20.6569 24 22 22.6569 22 21 L 22 0 Z M 20 2 L 20 17 L 4 17 L 4 2 Z M 19 22 L 5 22 C 4.44772 22 4 21.5523 4 21 L 4 19 L 11 19 L 11 21 L 13 21 L 13 19 L 20 19 L 20 21 C 20 21.5523 19.5523 22 19 22 Z" stroke="none" stroke-width="1" stroke-dasharray="" stroke-dashoffset="1" fill="#1EBBEE" fill-opacity="1"/></g></svg>