<svg id="Layer_1" data-name="Layer 1" xmlns="http://www.w3.org/2000/svg" viewBox="0 0 300 288.25"><defs><style>.cls-1,.cls-10,.cls-11,.cls-2,.cls-3,.cls-4,.cls-5,.cls-6,.cls-7,.cls-8,.cls-9{fill:none;stroke-miterlimit:10;}.cls-1,.cls-10,.cls-11,.cls-9{stroke:#0fb9ed;}.cls-1,.cls-4{stroke-width:2.71px;}.cls-2,.cls-3,.cls-4,.cls-5,.cls-6,.cls-7,.cls-8{stroke:#0d4f6c;}.cls-10,.cls-2{stroke-width:6.77px;}.cls-11,.cls-3{stroke-width:9.48px;}.cls-5{stroke-width:1.95px;}.cls-6{stroke-width:3.83px;}.cls-7{stroke-width:4.52px;}.cls-8{stroke-width:2.28px;}.cls-9{stroke-width:3.16px;}</style></defs><polyline class="cls-1" points="139.61 111.96 156.31 128.51 156.31 135.78"/><ellipse class="cls-1" cx="156.31" cy="140.04" rx="4.43" ry="4.26"/><path class="cls-2" d="M175.16,124.28c-9.78-11.5-27.27-15-41.61-10.48"/><path class="cls-3" d="M86.59,116.44C91,80.31,121,72.46,134.86,74c32.08,3.59,36.9,25.57,42.35,29.8,2.56,2,14.77-7,26.41,4.16,13.49,12.86,4.43,29.28,3.65,27.38-1.42-3.44,21.74-9.35,30.85,14.47,5.37,14-6.31,27.86-12.18,29.79-7.71,2.53-42.82,1.73-40.53,1.64"/><path class="cls-4" d="M176.75,131.21,168.86,137l-2.06,10.13"/><ellipse class="cls-5" cx="165.85" cy="151.19" rx="3.78" ry="3.64"/><ellipse class="cls-6" cx="155.37" cy="209.3" rx="5.37" ry="5.16"/><polyline class="cls-7" points="127.14 119.27 138.91 133.38 138.91 142.3 148.25 153.81 148.25 173.81 154.73 181.59 154.73 203.02"/><ellipse class="cls-8" cx="120.61" cy="213.76" rx="4.43" ry="4.26"/><polyline class="cls-7" points="115.71 128.51 130.39 143.36 130.39 179.88 119.76 189.61 120.27 208.6"/><ellipse class="cls-9" cx="140.48" cy="194.63" rx="6.21" ry="5.98"/><polyline class="cls-9" points="107.53 136.51 141 158.63 141 188.28"/><path class="cls-2" d="M128.28,116c-10.78,5.66-18.6,15.41-20.91,27.37a36.87,36.87,0,0,0,15.72,36.39"/><path class="cls-10" d="M169.86,179.58a37.1,37.1,0,0,0,14-40.79,36.66,36.66,0,0,0-5.11-10.36"/><path class="cls-11" d="M105.71,182.68c-27,4-47-15.87-45.08-34.84,2.3-22.58,23.95-40.39,50.55-26.51"/></svg>